<svg width="85" height="37" viewBox="0 0 85 37" fill="none" xmlns="http://www.w3.org/2000/svg">
<mask id="mask0_263_1235" style="mask-type:luminance" maskUnits="userSpaceOnUse" x="79" y="9" width="6" height="9">
<path d="M79.8854 9.89062H84.9391V17.7656H79.8854V9.89062Z" fill="white"/>
</mask>
<g mask="url(#mask0_263_1235)">
<path d="M80.4478 17.7303V10.8309H82.0737C82.4165 10.8177 82.7549 10.8441 83.0933 10.91C83.3042 10.9584 83.4932 11.0463 83.6646 11.1737C83.8799 11.3495 84.0381 11.5648 84.1392 11.8197C84.2578 12.1053 84.3149 12.3998 84.3105 12.7118C84.3457 13.2128 84.1875 13.6434 83.8359 13.9994C83.4316 14.3334 82.9658 14.4784 82.4429 14.4432H82.2935L84.939 17.7347H83.8931L81.3706 14.4432H81.252V17.7347L80.4478 17.7303ZM81.252 11.5253V13.8324H81.8804C82.333 13.8807 82.7637 13.7972 83.1724 13.5863C83.4272 13.3534 83.5327 13.0634 83.4976 12.7206C83.5371 12.3558 83.4272 12.0438 83.1636 11.7889C82.7637 11.5692 82.3374 11.4769 81.8804 11.5253H81.252Z" fill="white"/>
</g>
<mask id="mask1_263_1235" style="mask-type:luminance" maskUnits="userSpaceOnUse" x="79" y="20" width="6" height="8">
<path d="M79.8854 20.0156H84.9391V27.8906H79.8854V20.0156Z" fill="white"/>
</mask>
<g mask="url(#mask1_263_1235)">
<path d="M80.8433 27.1523V20.2178H84.5127V20.9692H81.6694V22.96H84.5127V23.729H81.6694V26.3833H84.5127V27.1523H80.8433Z" fill="white"/>
</g>
<path d="M45.8896 17.4117V10.6903H47.1826C47.8633 10.6646 48.5397 10.716 49.2075 10.8359C49.5843 10.9215 49.9268 11.0842 50.2393 11.3196C50.6289 11.6236 50.9243 12.0003 51.1169 12.4584C51.3267 12.9679 51.4252 13.503 51.4166 14.0553C51.4252 14.6075 51.3267 15.1384 51.1212 15.6479C50.9286 16.1059 50.6332 16.4827 50.2393 16.7824C49.9353 17.0136 49.6014 17.1762 49.2289 17.2661C48.651 17.386 48.0645 17.4331 47.4737 17.4117H45.8896ZM46.7031 16.6582H47.2082C47.7862 16.6796 48.3599 16.6411 48.9335 16.5512C49.2289 16.4955 49.4944 16.3714 49.7298 16.183C50.0167 15.939 50.2264 15.6436 50.3592 15.2925C50.5133 14.8944 50.5861 14.4791 50.5775 14.0467C50.5861 13.6186 50.5133 13.2076 50.3634 12.8052C50.2264 12.4584 50.0167 12.163 49.7298 11.9233C49.4901 11.7306 49.2247 11.6022 48.925 11.5422C48.3556 11.4481 47.7862 11.4095 47.2082 11.4309H46.6988L46.7031 16.6582Z" fill="white"/>
<path d="M59.6278 14.0678C59.6321 14.5387 59.5422 14.9882 59.3624 15.4249C59.1783 15.8573 58.9214 16.2341 58.5832 16.5594C58.2407 16.8891 57.8468 17.1459 57.4059 17.3257C56.9649 17.5013 56.5069 17.5912 56.0274 17.5912C55.5522 17.5912 55.0941 17.5013 54.6531 17.3257C54.2079 17.1459 53.8183 16.8891 53.4758 16.5594C52.7651 15.8787 52.4141 15.0482 52.4226 14.0678C52.4184 13.5926 52.5083 13.1388 52.6924 12.7021C52.8722 12.2697 53.1376 11.8887 53.4758 11.5633C53.814 11.2337 54.2079 10.9811 54.6488 10.8013C55.5693 10.4331 56.4897 10.4331 57.4102 10.8013C57.8511 10.9768 58.2407 11.2294 58.5832 11.5633C58.9214 11.8844 59.1783 12.2654 59.3624 12.6978C59.5422 13.1345 59.6321 13.5883 59.6278 14.0635M56.0231 16.8377C56.3913 16.8377 56.7423 16.7692 57.0762 16.6279C57.4187 16.4866 57.7184 16.2811 57.9796 16.02C58.5233 15.4806 58.7973 14.8298 58.7887 14.0678C58.793 13.6953 58.7202 13.3357 58.5789 12.9889C58.4419 12.6507 58.2407 12.3511 57.9796 12.0899C57.7184 11.8288 57.423 11.6318 57.0805 11.4905C56.3741 11.2037 55.6677 11.2037 54.9614 11.4905C54.6231 11.6275 54.3277 11.8288 54.0709 12.0899C53.8097 12.3511 53.6085 12.6507 53.4672 12.9932C53.326 13.3357 53.2575 13.6953 53.2617 14.0635C53.2575 14.4317 53.326 14.7827 53.4672 15.121C53.7626 15.8273 54.2678 16.3282 54.9742 16.6322C55.3081 16.7692 55.6592 16.842 56.0274 16.8377" fill="white"/>
<path d="M66.4049 12.2954C66.1138 11.97 65.7713 11.7131 65.3732 11.5248C64.9922 11.3492 64.5855 11.2679 64.1659 11.2722C63.4081 11.2765 62.766 11.5505 62.2394 12.0899C61.9868 12.351 61.7899 12.6464 61.6572 12.9846C61.5244 13.3357 61.4602 13.6996 61.4645 14.0763C61.4645 14.3674 61.503 14.6586 61.5801 14.9368C61.6572 15.198 61.7727 15.442 61.9269 15.6646C62.188 16.0414 62.5177 16.3325 62.9244 16.5465C63.3097 16.7478 63.7207 16.8505 64.1573 16.8591C64.5897 16.8676 65.005 16.7777 65.3989 16.5936C65.7885 16.3967 66.1267 16.1313 66.4049 15.7973V16.8591C65.7285 17.3471 64.9708 17.5954 64.1317 17.5911C63.7763 17.5911 63.4296 17.5398 63.0913 17.4327C62.7488 17.3257 62.4363 17.1716 62.1409 16.9704C61.6614 16.6493 61.2847 16.2297 61.015 15.7203C60.7453 15.2066 60.6168 14.6628 60.6254 14.0849C60.6211 13.5968 60.7067 13.1259 60.8866 12.6721C61.0706 12.2312 61.3361 11.8459 61.6786 11.5162C62.0125 11.1908 62.3935 10.9425 62.8216 10.7713C63.2626 10.6043 63.7207 10.523 64.1916 10.5273C64.5769 10.5273 64.9536 10.5872 65.3218 10.7028C65.7114 10.8312 66.071 11.0153 66.4049 11.2508V12.2954Z" fill="white"/>
<path d="M68.9522 17.4116V11.4522H67.0471V10.6902H71.6622V11.4522H69.7656V17.4116H68.9522Z" fill="white"/>
<path d="M78.9399 14.0678C78.9399 14.5387 78.85 14.9882 78.6702 15.4249C78.4904 15.8573 78.2293 16.2341 77.8911 16.5594C77.5486 16.8891 77.159 17.1459 76.718 17.3215C76.2728 17.5013 75.8147 17.5912 75.3395 17.5912C74.86 17.5912 74.4019 17.5013 73.961 17.3215C73.52 17.1459 73.1262 16.8891 72.7837 16.5594C72.0773 15.8787 71.7219 15.0482 71.7305 14.0678C71.7262 13.5926 71.8161 13.1388 72.0002 12.7021C72.1843 12.2697 72.4454 11.8887 72.7837 11.5633C73.1262 11.2337 73.5157 10.9768 73.9567 10.8013C74.8771 10.4331 75.7976 10.4331 76.718 10.8013C77.1633 10.9768 77.5529 11.2337 77.8911 11.5633C78.2293 11.8887 78.4904 12.2654 78.6702 12.6978C78.85 13.1345 78.9399 13.5926 78.9357 14.0635M75.3352 16.8377C75.6991 16.8377 76.0502 16.7692 76.3884 16.6279C76.7266 16.4866 77.0306 16.2811 77.2874 16.02C77.8354 15.4806 78.1051 14.8298 78.1008 14.0678C78.1008 13.6953 78.0323 13.3357 77.8911 12.9889C77.7498 12.6507 77.5486 12.3511 77.2874 12.0899C77.0306 11.8288 76.7309 11.6318 76.3927 11.4905C75.6863 11.2037 74.9756 11.2037 74.2692 11.4905C73.931 11.6275 73.6356 11.8288 73.3787 12.0899C73.1176 12.3511 72.9164 12.6507 72.7751 12.9932C72.6381 13.3357 72.5696 13.6953 72.5696 14.0635C72.5653 14.4317 72.6381 14.7827 72.7751 15.121C73.0748 15.8273 73.5757 16.3282 74.2821 16.6322C74.6203 16.7735 74.9713 16.842 75.3352 16.8377Z" fill="white"/>
<mask id="mask2_263_1235" style="mask-type:luminance" maskUnits="userSpaceOnUse" x="21" y="11" width="22" height="26">
<path d="M21.6454 11.1738H42.4346V36.2742H21.6454V11.1738Z" fill="white"/>
</mask>
<g mask="url(#mask2_263_1235)">
<mask id="mask3_263_1235" style="mask-type:luminance" maskUnits="userSpaceOnUse" x="21" y="11" width="22" height="26">
<path d="M21.6454 11.1738V21.6626H25.4684V14.7443H26.8256C29.6939 14.7443 31.7104 14.8727 32.8277 15.1296C33.8252 15.3351 34.72 15.7504 35.5163 16.384C36.4753 17.1931 37.1859 18.1821 37.6483 19.3508C38.162 20.7293 38.4018 22.1507 38.3718 23.6191C38.3975 25.0918 38.1535 26.5175 37.6355 27.896C37.1859 29.069 36.4796 30.0622 35.5163 30.8714C34.7328 31.4921 33.8552 31.8989 32.8748 32.0958C31.7746 32.3441 29.7367 32.464 26.8256 32.464H25.4684V25.6056H21.6454V36.0858H27.7674C30.6229 36.0858 32.7721 35.9103 34.1463 35.5592C35.5249 35.2125 36.7792 34.6088 37.9052 33.7483C39.3822 32.6266 40.4781 31.2139 41.1974 29.51C41.968 27.6306 42.3362 25.6783 42.2976 23.6491C42.3362 21.6113 41.968 19.6548 41.1931 17.7668C40.4696 16.0672 39.3736 14.6501 37.9095 13.5199C36.7535 12.6465 35.4735 12.0386 34.065 11.7004C32.6308 11.3579 30.1691 11.1738 26.7357 11.1738H21.6454Z" fill="white"/>
</mask>
<g mask="url(#mask3_263_1235)">
<mask id="mask4_263_1235" style="mask-type:luminance" maskUnits="userSpaceOnUse" x="9" y="0" width="46" height="47">
<path d="M9.19995 24.7363L31.0552 0.916016L54.7471 22.5187L32.8961 46.3432L9.19995 24.7363Z" fill="white"/>
</mask>
<g mask="url(#mask4_263_1235)">
<path d="M9.19983 24.7406L32.9131 46.3604L54.7812 22.523L31.0722 0.898926L9.19983 24.7406Z" fill="white"/>
</g>
</g>
</g>
<mask id="mask5_263_1235" style="mask-type:luminance" maskUnits="userSpaceOnUse" x="0" y="0" width="19" height="37">
<path d="M0 0H18.7V36.2142H0V0Z" fill="white"/>
</mask>
<g mask="url(#mask5_263_1235)">
<mask id="mask6_263_1235" style="mask-type:luminance" maskUnits="userSpaceOnUse" x="0" y="0" width="19" height="37">
<path d="M0 0V26.0336C0 29.3858 0.826261 31.9459 2.4531 33.637C4.18268 35.4308 6.24619 36.1928 9.36715 36.1928C12.4581 36.1928 14.5131 35.4308 16.2384 33.637C17.8695 31.9416 18.6915 29.3858 18.6915 26.0336V11.1781H14.8556V26.0336C14.8556 28.3283 14.3718 30.0194 13.4214 31.064C12.548 32.023 11.5677 32.6138 9.36715 32.6138C7.12811 32.6138 6.10491 31.993 5.25296 31.064C4.30255 30.0237 3.82306 28.3283 3.82306 26.0336V0H0Z" fill="white"/>
</mask>
<g mask="url(#mask6_263_1235)">
<mask id="mask7_263_1235" style="mask-type:luminance" maskUnits="userSpaceOnUse" x="-21" y="-12" width="73" height="81">
<path d="M11.4136 -11.6448L51.134 47.0711L19.3851 68.4212L-20.3354 9.7053L11.4136 -11.6448Z" fill="white"/>
</mask>
<g mask="url(#mask7_263_1235)">
<path d="M12.8479 -8.6394L-16.829 11.3193L5.8439 44.8364L35.5208 24.8777L12.8479 -8.6394Z" fill="white"/>
</g>
</g>
</g>
<path d="M45.8896 26.5904V19.8347H49.4644V20.5668H46.6945V22.5062H49.4644V23.2554H46.6945V26.5904H45.8896Z" fill="white"/>
<path d="M50.7059 19.8347H51.5108V26.5904H50.7059V19.8347Z" fill="white"/>
<path d="M53.1461 26.5902V19.5691L58.1037 24.9676V19.8345H58.87V26.8513L53.9167 21.5127V26.5902H53.1461Z" fill="white"/>
<path d="M62.6332 19.5691L65.7156 26.5902H64.8423L63.9646 24.5181H61.3146L60.4327 26.5859H59.5636L62.6332 19.5691ZM62.6332 21.3458L61.5543 23.8331H63.712L62.6332 21.3458Z" fill="white"/>
<path d="M66.4135 26.5902V19.5691L71.371 24.9676V19.8345H72.1416V26.8513L67.1841 21.5127V26.5902H66.4135Z" fill="white"/>
<path d="M79.2569 21.4485C78.9615 21.1231 78.619 20.8619 78.2209 20.6736C77.8356 20.5023 77.4288 20.4167 77.005 20.421C76.243 20.4295 75.6008 20.6993 75.0699 21.243C74.8131 21.5041 74.6204 21.8038 74.4877 22.142C74.3507 22.4931 74.2865 22.857 74.2908 23.2337C74.2908 23.5291 74.3293 23.8202 74.4064 24.1028C74.4834 24.3639 74.599 24.6079 74.7531 24.8306C75.0143 25.2116 75.3482 25.507 75.7549 25.721C76.1445 25.918 76.5598 26.025 76.9965 26.0336C77.4331 26.0378 77.8484 25.9479 78.2423 25.7639C78.6361 25.5669 78.9743 25.3015 79.2569 24.9676V26.0336C78.5762 26.5259 77.8141 26.7699 76.9708 26.7699C76.6154 26.7699 76.2644 26.7185 75.9262 26.6115C75.5623 26.5002 75.2283 26.3375 74.9201 26.1192C74.6119 25.9051 74.3464 25.644 74.1238 25.34C73.9012 25.0361 73.7299 24.7064 73.6143 24.3468C73.4988 23.9872 73.4431 23.619 73.4517 23.2465C73.4431 22.7542 73.5287 22.279 73.7128 21.8252C73.8969 21.3842 74.1623 20.9947 74.5091 20.665C74.843 20.3396 75.2241 20.0913 75.6565 19.9201C76.0974 19.7531 76.5555 19.6675 77.0307 19.6718C77.4203 19.6718 77.8013 19.7317 78.1695 19.8516C78.5591 19.98 78.923 20.1641 79.2569 20.4039V21.4485Z" fill="white"/>
<path d="M46.1679 32.0915L46.793 30.7472L45.8896 28.6794H46.3434L47.0156 30.3277L47.722 28.6794H48.1544L46.6132 32.0915H46.1679Z" fill="#59B8BC"/>
<path d="M48.3427 29.8354C48.3427 29.6684 48.3726 29.51 48.4368 29.3559C48.4968 29.2061 48.5867 29.0734 48.7065 28.9578C48.8221 28.8422 48.9591 28.7523 49.109 28.688C49.2674 28.6281 49.4258 28.5981 49.5927 28.5981C49.7597 28.5981 49.9181 28.6281 50.0722 28.6923C50.2264 28.7565 50.3591 28.8465 50.4789 28.962C50.5988 29.0734 50.6887 29.2061 50.7529 29.3559C50.8129 29.51 50.8471 29.6684 50.8428 29.8311C50.8471 29.9981 50.8129 30.1522 50.7529 30.3063C50.6887 30.4562 50.5988 30.5846 50.4789 30.7002C50.3591 30.8158 50.2221 30.91 50.068 30.9742C49.9181 31.0384 49.7597 31.0684 49.5927 31.0684C49.4258 31.0726 49.2674 31.0384 49.1133 30.9742C48.9591 30.9142 48.8264 30.8243 48.7065 30.7045C48.591 30.5889 48.5011 30.4562 48.4368 30.3063C48.3726 30.1522 48.3427 29.9938 48.3427 29.8311M48.7622 29.8311C48.7536 30.0709 48.835 30.2806 49.0019 30.4519C49.1603 30.6231 49.3573 30.7045 49.5927 30.7002C49.8239 30.7045 50.0209 30.6231 50.1793 30.4519C50.3419 30.2764 50.419 30.0709 50.419 29.8354C50.419 29.5999 50.3419 29.3944 50.1793 29.2189C50.0209 29.0477 49.8239 28.9663 49.5927 28.9706C49.3573 28.9663 49.1603 29.0477 49.0019 29.2189C48.835 29.3902 48.7536 29.5957 48.7579 29.8354" fill="#59B8BC"/>
<path d="M51.8276 28.6794V29.8097C51.8062 30.0537 51.8533 30.2849 51.9732 30.4989C52.1059 30.6488 52.2729 30.7173 52.4698 30.6959C52.671 30.7173 52.8337 30.6531 52.9664 30.5032C53.082 30.2849 53.1291 30.0537 53.1077 29.8097V28.6794H53.5101V30.0194C53.5315 30.1607 53.5187 30.302 53.4716 30.4433C53.4245 30.5803 53.3475 30.7001 53.2447 30.8029C53.142 30.9056 53.0221 30.9827 52.8851 31.0298C52.7481 31.0769 52.6068 31.0897 52.4613 31.0726C52.1616 31.094 51.9047 31.0041 51.6821 30.8029C51.4809 30.5803 51.3952 30.3148 51.4167 30.0194V28.6794H51.8276Z" fill="#59B8BC"/>
<path d="M54.2808 30.9741V28.6794H54.6275V29.1546C54.7089 28.9876 54.8202 28.8464 54.9657 28.7308C55.0985 28.6409 55.2397 28.5981 55.4024 28.6023C55.4452 28.6023 55.4923 28.6066 55.5351 28.6109C55.5822 28.6195 55.625 28.6323 55.6679 28.6494L55.5351 29.0005C55.4923 28.9876 55.4495 28.9748 55.4067 28.9662C55.3682 28.9577 55.3296 28.9534 55.2911 28.9534C55.0942 28.9448 54.9401 29.0176 54.8245 29.1803C54.7046 29.3901 54.6532 29.6127 54.6703 29.8567V30.9741H54.2808Z" fill="#59B8BC"/>
<path d="M59.3667 30.4305V30.8843C59.2554 30.9528 59.1398 30.9956 59.0156 31.0255C58.8744 31.0598 58.7331 31.0726 58.5918 31.0726C58.2536 31.0855 57.9668 30.9742 57.7313 30.7344C57.5001 30.4861 57.3931 30.1907 57.4059 29.8482C57.3931 29.5015 57.5044 29.2018 57.7441 28.9449C57.9796 28.7009 58.2664 28.5853 58.6047 28.5981C58.7331 28.5981 58.8572 28.611 58.9814 28.6367C59.097 28.6623 59.2126 28.7052 59.3239 28.7565V29.1761C59.2254 29.1119 59.1227 29.0648 59.0114 29.0262C58.9043 28.992 58.7973 28.9749 58.686 28.9749C58.442 28.9663 58.2365 29.0477 58.0652 29.2189C57.894 29.3987 57.8169 29.617 57.8298 29.8654C57.8255 30.0923 57.9026 30.2892 58.0652 30.4519C58.2279 30.6146 58.4249 30.6959 58.656 30.6873C58.7759 30.6873 58.8915 30.6702 59.0028 30.6274C59.1355 30.576 59.2554 30.5118 59.3624 30.4262" fill="#59B8BC"/>
<path d="M62.0553 28.6792V30.9739H61.6742V30.5586C61.5886 30.717 61.473 30.8412 61.3232 30.9396C61.1733 31.0295 61.0107 31.0724 60.8394 31.0724C60.5183 31.0809 60.2529 30.9696 60.0431 30.7299C59.8205 30.473 59.722 30.1733 59.7392 29.8308C59.722 29.4926 59.8162 29.1929 60.0303 28.9318C60.24 28.6963 60.5012 28.5807 60.818 28.5979C60.9978 28.5893 61.1648 28.6364 61.3232 28.7263C61.473 28.8205 61.5886 28.9489 61.6657 29.1116V28.6792H62.0553ZM61.6742 29.8479C61.6871 29.6125 61.6143 29.4027 61.4602 29.2229C61.3103 29.0688 61.1262 28.9874 60.9122 28.9832C60.6938 28.9832 60.5098 29.0559 60.3556 29.2058C60.2058 29.3813 60.1416 29.5825 60.1544 29.8137C60.1373 30.0534 60.2058 30.2675 60.3556 30.4559C60.5098 30.6014 60.6981 30.6785 60.9122 30.6785C61.1305 30.6828 61.3146 30.61 61.473 30.4602C61.6229 30.2846 61.6871 30.0791 61.6742 29.8479Z" fill="#59B8BC"/>
<path d="M62.5989 30.5889L62.9328 30.362C62.9927 30.4776 63.0698 30.5675 63.1768 30.636C63.2839 30.7002 63.3995 30.7302 63.5193 30.7302C63.6349 30.7345 63.7419 30.7045 63.8318 30.636C63.9175 30.5718 63.956 30.4862 63.9517 30.3834C63.956 30.3063 63.9303 30.2378 63.8747 30.1822C63.789 30.1137 63.6949 30.0623 63.5921 30.0324L63.5236 30.0109C62.9671 29.8183 62.6845 29.5785 62.6845 29.2917C62.6802 29.0862 62.7573 28.9193 62.9114 28.7908C63.0826 28.6538 63.2796 28.5896 63.5022 28.5982C63.682 28.5939 63.8533 28.6324 64.0159 28.718C64.1572 28.7908 64.26 28.9064 64.3199 29.0563L64.0031 29.2489C63.9603 29.1462 63.8875 29.0648 63.7933 29.0049C63.6949 28.9492 63.5921 28.9193 63.4765 28.9193C63.3695 28.915 63.2753 28.9492 63.194 29.0177C63.1169 29.0819 63.0826 29.1676 63.0869 29.266C63.0869 29.4073 63.2368 29.5229 63.5407 29.6171C63.6007 29.6385 63.6435 29.6513 63.6777 29.6599C63.8747 29.7113 64.0459 29.8012 64.2 29.9382C64.3071 30.0495 64.3541 30.1865 64.3456 30.3449C64.3541 30.5547 64.2771 30.7302 64.1101 30.8715C63.9346 31.017 63.7334 31.0812 63.5065 31.0727C63.3138 31.077 63.1297 31.0384 62.9585 30.9528C62.8001 30.8672 62.6802 30.7473 62.5989 30.5889Z" fill="#59B8BC"/>
<path d="M66.9957 29.8867H65.172V29.921C65.1634 30.1479 65.2319 30.3448 65.386 30.516C65.5316 30.6744 65.7157 30.7515 65.934 30.7429C66.0881 30.7472 66.2251 30.7044 66.3536 30.6188C66.4906 30.5203 66.6019 30.3962 66.6789 30.2463L66.9786 30.4433C66.8759 30.6402 66.726 30.7986 66.5334 30.9142C66.3407 31.0212 66.1352 31.0769 65.9126 31.0726C65.5787 31.0854 65.2918 30.9698 65.0607 30.7258C64.8295 30.4647 64.7224 30.165 64.7396 29.8182C64.7267 29.48 64.8337 29.1846 65.0607 28.9363C65.2833 28.6966 65.5615 28.581 65.8869 28.5938C66.208 28.5767 66.4777 28.6837 66.696 28.9192C66.9144 29.176 67.0129 29.4714 66.9957 29.8097V29.8867ZM66.5719 29.5656C66.5676 29.3815 66.5034 29.2274 66.3707 29.099C66.2251 28.9791 66.0582 28.9277 65.8698 28.9363C65.6857 28.9277 65.5273 28.9877 65.3903 29.1075C65.2576 29.2317 65.1848 29.3858 65.172 29.5656H66.5719Z" fill="#59B8BC"/>
<path d="M67.6422 30.7303C67.6422 30.6446 67.6722 30.5761 67.7321 30.5162C67.7878 30.4605 67.8606 30.4306 67.9419 30.4306C68.0275 30.4263 68.096 30.4563 68.1559 30.5162C68.2202 30.5761 68.2501 30.6446 68.2459 30.7303C68.2501 30.8116 68.2202 30.8801 68.1602 30.9358C68.096 30.9914 68.0275 31.0214 67.9419 31.0171C67.8606 31.0214 67.7878 30.9914 67.7278 30.9358C67.6722 30.8801 67.6422 30.8116 67.6422 30.7303Z" fill="#59B8BC"/>
<path d="M45.8896 34.6301C45.8896 34.4631 45.9196 34.3047 45.9838 34.1506C46.0481 34.0007 46.138 33.868 46.2535 33.7524C46.3734 33.6368 46.5061 33.5469 46.6603 33.4827C46.8144 33.4228 46.9728 33.3928 47.144 33.3928C47.3067 33.3928 47.4651 33.4228 47.6192 33.487C47.7734 33.5512 47.9103 33.6411 48.0259 33.7567C48.1458 33.868 48.2357 34.0007 48.2999 34.1506C48.3642 34.3047 48.3941 34.4631 48.3941 34.6258C48.3941 34.7928 48.3642 34.9469 48.2999 35.101C48.2357 35.2508 48.1458 35.3793 48.0259 35.4949C47.9103 35.6105 47.7734 35.7046 47.6149 35.7689C47.4651 35.8331 47.3067 35.8673 47.144 35.863C46.9771 35.8673 46.8144 35.8331 46.6603 35.7689C46.5061 35.7089 46.3734 35.619 46.2535 35.4991C46.138 35.3836 46.0481 35.2508 45.9838 35.101C45.9196 34.9469 45.8896 34.7885 45.8896 34.6258M46.3092 34.6258C46.3006 34.8655 46.382 35.071 46.5532 35.2423C46.7116 35.4135 46.9086 35.4949 47.144 35.4906C47.3752 35.4949 47.5721 35.4135 47.7305 35.2423C47.8889 35.0668 47.9703 34.8613 47.9703 34.6258C47.9703 34.3903 47.8889 34.1848 47.7305 34.0093C47.5721 33.8381 47.3752 33.7567 47.144 33.761C46.9086 33.7567 46.7116 33.8381 46.5489 34.0093C46.382 34.1806 46.3049 34.386 46.3092 34.6258Z" fill="#59B8BC"/>
<path d="M49.3744 33.4785V34.6045C49.353 34.8528 49.4044 35.0797 49.5242 35.298C49.6527 35.4478 49.8196 35.5121 50.0209 35.4949C50.2178 35.5121 50.3805 35.4478 50.5132 35.298C50.6331 35.0839 50.6802 34.8528 50.6588 34.6045V33.4785H51.0612V34.8142C51.0783 34.9598 51.0655 35.1011 51.0184 35.2381C50.9713 35.3751 50.8985 35.4949 50.7957 35.602C50.693 35.7047 50.5731 35.7775 50.4319 35.8246C50.2949 35.8717 50.1536 35.8888 50.008 35.8674C49.7126 35.8888 49.4515 35.7989 49.2288 35.602C49.0319 35.3751 48.942 35.1139 48.9634 34.8142V33.4785H49.3744Z" fill="#59B8BC"/>
<path d="M51.8276 35.7733V33.4786H52.1744V33.9538C52.2558 33.7868 52.3671 33.6413 52.5126 33.5257C52.6453 33.4358 52.7909 33.393 52.9493 33.3973C52.9921 33.3973 53.0392 33.4015 53.082 33.4101C53.1291 33.4187 53.1719 33.4315 53.2147 33.4444L53.082 33.7997C53.0435 33.7826 53.0007 33.774 52.9536 33.7654C52.915 33.7569 52.8765 33.7526 52.838 33.7526C52.6411 33.7398 52.4869 33.8168 52.3713 33.9752C52.2515 34.185 52.2001 34.4119 52.2172 34.6516V35.769L51.8276 35.7733Z" fill="#59B8BC"/>
<path d="M54.9056 35.3836L55.2396 35.161C55.2952 35.2723 55.3766 35.3665 55.4836 35.435C55.5906 35.4992 55.7019 35.5291 55.8261 35.5249C55.9417 35.5291 56.0487 35.4992 56.1386 35.4307C56.2242 35.3665 56.2628 35.2851 56.2585 35.1781C56.2628 35.101 56.2328 35.0325 56.1771 34.9811C56.0958 34.9084 56.0016 34.8613 55.8989 34.8313L55.8304 34.8099C55.2738 34.6173 54.9913 34.3775 54.9913 34.0864C54.987 33.8852 55.0598 33.7182 55.2182 33.5898C55.3894 33.4485 55.5863 33.3843 55.809 33.3928C55.9888 33.3886 56.16 33.4271 56.3184 33.5127C56.464 33.5898 56.5667 33.7011 56.6267 33.8509L56.3056 34.0479C56.2628 33.9408 56.1943 33.8595 56.1001 33.8038C56.0016 33.7439 55.8946 33.7139 55.7833 33.7182C55.6762 33.7139 55.5821 33.7439 55.5007 33.8124C55.4237 33.8809 55.3851 33.9622 55.3894 34.0607C55.3894 34.202 55.5435 34.3176 55.8475 34.416C55.9031 34.4332 55.9502 34.446 55.9845 34.4588C56.1771 34.5059 56.3527 34.6001 56.5025 34.7328C56.6095 34.8484 56.6566 34.9811 56.6523 35.1396C56.6566 35.3536 56.5796 35.5291 56.4169 35.6661C56.2414 35.8117 56.0401 35.8802 55.8132 35.8673C55.6206 35.8759 55.4365 35.8331 55.2653 35.7475C55.1069 35.6619 54.987 35.542 54.9056 35.3836Z" fill="#59B8BC"/>
<mask id="mask8_263_1235" style="mask-type:luminance" maskUnits="userSpaceOnUse" x="56" y="32" width="4" height="5">
<path d="M56.6825 32.7893H59.9704V36.8906H56.6825V32.7893Z" fill="white"/>
</mask>
<g mask="url(#mask8_263_1235)">
<path d="M57.243 36.8905V33.4785H57.6198V33.9066C57.7011 33.7482 57.8167 33.6197 57.9708 33.5256C58.1207 33.4357 58.2834 33.3886 58.4589 33.3928C58.78 33.38 59.0454 33.4913 59.2595 33.7311C59.4778 33.9922 59.5763 34.2919 59.5591 34.6258C59.5805 34.9683 59.4821 35.268 59.2637 35.5334C59.054 35.7689 58.7928 35.8802 58.4717 35.8673C58.2962 35.8716 58.1292 35.8288 57.9794 35.7346C57.8253 35.6404 57.7097 35.512 57.6326 35.3536V36.8905H57.243ZM57.6241 34.6301C57.6112 34.8656 57.684 35.071 57.8381 35.2466C57.9922 35.4135 58.1806 35.4906 58.4032 35.482C58.6173 35.4949 58.7971 35.4221 58.9469 35.268C59.0925 35.0967 59.1567 34.8998 59.1439 34.6772C59.1567 34.4289 59.0925 34.2105 58.9469 34.0136C58.8014 33.8381 58.6216 33.761 58.3947 33.7696C58.1721 33.761 57.9837 33.8338 57.8296 34.0008C57.6797 34.1806 57.6112 34.3903 57.6241 34.6301Z" fill="#59B8BC"/>
</g>
<path d="M62.2436 34.6816H60.4198V34.7202C60.4113 34.9471 60.4798 35.144 60.6339 35.3152C60.7794 35.4736 60.9635 35.5507 61.1819 35.5421C61.3317 35.5421 61.473 35.5036 61.5971 35.418C61.7384 35.3195 61.8497 35.1954 61.9268 35.0412L62.2265 35.2425C62.128 35.4437 61.9782 35.5978 61.7855 35.7134C61.5929 35.8247 61.3874 35.8761 61.1605 35.8718C60.8265 35.8846 60.544 35.769 60.3128 35.525C60.0816 35.2639 59.9703 34.9642 59.9874 34.6174C59.9746 34.2792 60.0816 33.9838 60.3085 33.7355C60.5311 33.4958 60.8094 33.3802 61.1391 33.3887C61.4559 33.3759 61.7256 33.4829 61.9482 33.7141C62.1623 33.9752 62.2607 34.2706 62.2436 34.6046V34.6816ZM61.8198 34.3648C61.8198 34.1807 61.7513 34.0266 61.6185 33.8982C61.473 33.7783 61.3103 33.7227 61.1219 33.7355C60.9378 33.7269 60.7752 33.7826 60.6424 33.9067C60.5055 34.0309 60.4327 34.1807 60.4198 34.3648H61.8198Z" fill="#59B8BC"/>
<path d="M64.6025 35.2254V35.6834C64.4912 35.7477 64.3756 35.7947 64.2514 35.8247C64.1144 35.8547 63.9732 35.8718 63.8319 35.8675C63.4937 35.8846 63.2068 35.7733 62.9714 35.5336C62.7402 35.281 62.6289 34.9856 62.646 34.6474C62.6332 34.3006 62.7445 33.9967 62.9842 33.7441C63.2197 33.5 63.5065 33.3845 63.8447 33.393C63.9732 33.393 64.0973 33.4101 64.2172 33.4358C64.3371 33.4615 64.4526 33.5001 64.564 33.5514V33.9753C64.4655 33.911 64.3585 33.8597 64.2472 33.8211C64.1444 33.7912 64.0331 33.774 63.9218 33.774C63.6778 33.7612 63.4723 33.8425 63.301 34.0138C63.1341 34.1979 63.0527 34.4119 63.0656 34.6602C63.0613 34.8914 63.1383 35.0884 63.301 35.251C63.4637 35.418 63.6606 35.4951 63.8918 35.4865C64.0117 35.4865 64.1273 35.4694 64.2386 35.4266C64.3713 35.3752 64.4912 35.311 64.5982 35.2296" fill="#59B8BC"/>
<path d="M65.0776 32.3699C65.0776 32.2928 65.1033 32.2243 65.1633 32.1687C65.2189 32.113 65.2874 32.083 65.3645 32.0873C65.4458 32.083 65.5143 32.113 65.57 32.1729C65.6427 32.2457 65.6684 32.3313 65.647 32.4298C65.6256 32.5326 65.57 32.6011 65.4715 32.6396C65.3773 32.6781 65.2874 32.6696 65.2018 32.6139C65.1162 32.554 65.0776 32.4726 65.0776 32.3742M65.1718 33.4787H65.5657V35.7734H65.1718V33.4787Z" fill="#59B8BC"/>
<path d="M68.541 33.4785V35.7732H68.1557V35.3536C68.0744 35.512 67.9545 35.6404 67.8047 35.7389C67.6548 35.8288 67.4964 35.8716 67.3252 35.8673C67.0041 35.8802 66.7387 35.7689 66.5246 35.5291C66.3063 35.268 66.2035 34.9683 66.2207 34.6301C66.2035 34.2919 66.302 33.9922 66.5161 33.7311C66.7215 33.4913 66.987 33.38 67.3038 33.3928C67.4836 33.3886 67.6506 33.4314 67.8047 33.5213C67.9588 33.6197 68.0701 33.7482 68.1472 33.9066V33.4785H68.541ZM68.1557 34.6472C68.1686 34.4075 68.1001 34.202 67.946 34.0179C67.7961 33.8638 67.612 33.7867 67.3937 33.7824C67.1796 33.7781 66.9955 33.8509 66.8371 34.0008C66.6916 34.1806 66.6274 34.3818 66.6402 34.613C66.6231 34.8527 66.6916 35.0668 66.8414 35.2509C66.9955 35.4007 67.1839 35.4778 67.398 35.4778C67.612 35.4778 67.8004 35.405 67.9588 35.2594C68.1044 35.0796 68.1729 34.8784 68.16 34.6472" fill="#59B8BC"/>
<path d="M69.3461 31.886H69.7485V35.769H69.3461V31.886Z" fill="#59B8BC"/>
<path d="M70.6346 33.7998H70.2108V33.4787H70.6346V32.554H71.0371V33.4787H71.4566V33.7998H71.0371V35.7691H70.6346V33.7998Z" fill="#59B8BC"/>
<mask id="mask9_263_1235" style="mask-type:luminance" maskUnits="userSpaceOnUse" x="70" y="32" width="5" height="5">
<path d="M70.9301 32.7893H74.218V36.8906H70.9301V32.7893Z" fill="white"/>
</mask>
<g mask="url(#mask9_263_1235)">
<path d="M71.8118 36.8906L72.4369 35.5463L71.5336 33.4785H71.9917L72.6595 35.1268L73.3702 33.4785H73.7983L72.2528 36.8906H71.8118Z" fill="#59B8BC"/>
</g>
<path d="M74.3121 35.4223C74.3121 35.3409 74.3421 35.2724 74.3978 35.2125C74.4577 35.1568 74.5262 35.1269 74.6118 35.1269C74.6932 35.1226 74.7659 35.1526 74.8259 35.2125C74.8858 35.2681 74.9158 35.3409 74.9158 35.4223C74.9158 35.5036 74.8858 35.5764 74.8259 35.632C74.7659 35.6877 74.6932 35.7177 74.6118 35.7134C74.5305 35.7177 74.4577 35.6877 74.3978 35.632C74.3378 35.5764 74.3121 35.5036 74.3121 35.4223Z" fill="#59B8BC"/>
</svg>
