<svg width="601" height="374" viewBox="0 0 601 374" fill="none" xmlns="http://www.w3.org/2000/svg">
<path d="M58.9408 252.962C69.9555 253.046 81.9425 252.212 92.6516 253.741C102.051 255.581 109.243 262.004 109.557 271.77C109.863 281.317 106.032 286.354 98.041 291.071C102.161 297.199 106.387 303.255 110.715 309.239L104.847 309.319L95.9554 309.307C91.8682 303.984 88.5159 298.677 84.5562 293.354C80.7073 293.24 76.4543 293.341 72.5739 293.35L72.5692 309.345L59.0026 309.311C58.7686 290.663 58.9834 271.652 58.9408 252.962ZM72.6174 282.737C80.1724 282.775 87.1814 283.76 93.4572 279.599C95.4823 276.916 96.2691 274.996 95.7619 271.585C94.2743 261.578 80.0837 263.869 72.5769 263.806L72.6174 282.737Z" fill="#20283F"/>
<path d="M0.124736 253.099C10.9634 253.052 31.3449 251.429 39.9819 256.405C44.2822 258.849 47.4136 262.941 48.6612 267.749C51.9841 280.49 44.7318 289.689 32.7067 292.738C28.2767 293.605 18.3461 293.352 13.3268 293.344L13.3118 309.345L0.0494438 309.311C-0.0358766 290.572 -0.0107726 271.838 0.124736 253.099ZM13.3783 282.433C19.8919 282.484 28.3361 283.556 33.4269 279.792C35.4298 277.02 36.337 274.609 35.6498 271.135C33.7556 261.566 20.6414 263.926 13.3348 263.774L13.3783 282.433Z" fill="#20283F"/>
<path d="M225.89 252.809L240.027 252.898C248.585 271.774 257.305 290.578 266.187 309.307H251.594C249.441 305.016 247.989 301.953 246.203 297.472L241.488 297.401L219.374 297.451C217.703 300.843 215.814 305.763 214.311 309.345L200.229 309.294C205.885 297.118 211.219 284.676 216.874 272.483C219.834 266.104 222.65 259.007 225.89 252.809ZM223.884 287.313L233.493 287.363L241.856 287.342C239.984 282.984 234.931 269.479 232.712 266.163C229.689 273.179 226.746 280.229 223.884 287.313Z" fill="#20283F"/>
<path d="M294.875 252.962C306.179 252.141 314.97 254.52 322.653 262.947C320.301 265.364 316.562 268.62 313.979 271.003C309.749 267.496 306.67 265.045 300.683 264.338C283.271 262.287 274.308 281.899 284.847 294.403C290.053 300.578 301.24 302.234 308.075 297.706C310.162 296.322 311.47 295.233 313.383 293.471L313.779 293.441C316.083 294.539 320.788 299.476 322.723 301.442C311.997 313.891 289.931 314.9 277.236 305.064C271.166 300.349 267.274 293.454 266.429 285.912C264.274 267.535 276.736 254.877 294.875 252.962Z" fill="#20283F"/>
<path d="M191.147 252.881C195.687 252.754 200.388 252.831 204.941 252.847C203.2 255.974 201.155 261.21 199.703 264.629C193.146 278.569 185.967 295.125 179.884 309.345L166.211 309.315L148.926 270.168C146.753 265.199 142.982 257.686 141.339 252.852L155.804 252.86C161.795 263.847 167.767 280.855 173.544 292.996C177.076 283.648 181.796 274.327 185.64 265.077C187.326 261.02 189.207 256.828 191.147 252.881Z" fill="#20283F"/>
<path d="M367.703 252.809C372.339 252.86 376.978 252.86 381.614 252.809C377.333 259.742 372.875 266.527 368.737 273.553C366.389 277.585 363.193 281.596 361.009 285.616C357.593 291.899 358.739 302.226 358.774 309.345L344.993 309.273C345.01 306.495 345.39 291.261 344.603 289.467C340.742 280.667 331.696 268.985 326.775 259.962C325.612 257.834 323.385 254.933 322.723 252.919C327.501 252.86 332.279 252.877 337.053 252.97C341.723 259.041 347.838 270.37 352.326 277.328C357.316 269.956 362.843 260.49 367.703 252.809Z" fill="#20283F"/>
<path d="M412.236 252.89L420.473 252.809C420.443 260.934 420.473 269.059 420.572 277.183L453.485 277.238L453.322 252.928L461.7 252.822L461.705 309.34C459.016 309.269 456.13 309.324 453.429 309.328C453.485 300.874 453.498 292.416 453.463 283.962C442.886 283.7 431.063 283.856 420.46 284.004V309.324L412.301 309.345C412.374 290.529 412.352 271.709 412.236 252.89Z" fill="#3FA898"/>
<path d="M560.642 252.831L599.642 252.809L599.573 259.487L568.379 259.5C568.37 265.438 568.399 271.371 568.464 277.309C577.502 277.144 586.955 277.28 596.026 277.28L596.043 283.961C587.553 283.716 578.507 283.907 569.977 283.936L568.818 284.101C567.935 286.134 568.395 299.506 568.436 302.667L600.688 302.625L600.627 309.345C587.671 309.023 573.683 309.302 560.674 309.315C560.764 290.487 560.752 271.659 560.642 252.831Z" fill="#3FA898"/>
<path d="M542.939 252.809H551.219C550.218 254.901 549.255 257.424 548.362 259.596C547.021 263.108 544.7 267.807 543.151 271.446L526.829 309.345L518.72 309.34C511.931 294.533 505.89 278.753 499.259 263.818C497.781 260.484 495.813 256.275 494.683 252.919C497.453 252.86 500.181 252.932 502.95 252.991C506.617 260.247 510.32 269.667 513.459 277.185C516.632 284.792 519.966 292.124 523.175 299.667C528.428 285.159 536.819 267.562 542.939 252.809Z" fill="#3FA898"/>
<path d="M122.493 252.847L134.271 252.809C133.964 258.061 134.211 267.115 134.217 272.637L134.153 309.345C130.609 309.146 126.177 309.281 122.567 309.281L122.493 252.847Z" fill="#20283F"/>
<path d="M478.195 252.822L487.617 252.809C487.235 271.175 487.666 290.827 487.607 309.345L478.288 309.336L478.195 252.822Z" fill="#3FA898"/>
<path d="M15.1392 348.307H24.6112C29.5974 348.307 30.7878 351.568 30.7878 356.226V366.612H27.6823V355.622C27.6823 352.931 27.1129 350.86 24.4042 350.86H20.1771V366.612H13.7934V364.111H17.1233V350.86H15.1392V348.307ZM35.9638 348.289H39.2074V357.779H35.9638V348.289ZM44.0211 348.307H53.4931C58.4792 348.307 59.6697 351.568 59.6697 356.226V366.612H56.5641V355.622C56.5641 352.931 55.9948 350.86 53.286 350.86H49.059V366.612H42.6753V364.111H46.0052V350.86H44.0211V348.307ZM64.7767 348.307H68.0203V366.612H64.7767V348.307ZM72.3336 348.307H77.4923C82.4784 348.307 84.8766 350.67 84.8766 355.657V359.297C84.8766 364.249 82.2714 366.612 77.4923 366.612H72.3681V364.111H77.6303C80.0457 364.111 81.6675 362.937 81.6675 359.331V355.76C81.6675 352.12 80.0802 350.86 77.6303 350.86H72.3336V348.307ZM103.924 366.612H100.508L93.5377 356.122C92.123 356.502 91.4328 357.675 91.4328 359.435L91.4846 366.612H88.379V360.505C88.379 357.606 89.0864 355.053 92.3473 354.311L88.3445 348.307H91.5536L97.575 357.537C99.3866 357.261 100.525 356.364 100.525 354.345V348.307H103.579V353.569C103.579 357.14 101.837 359.021 98.9035 359.366L103.924 366.612ZM109.497 348.307H120.263L113.551 366.612H110.446L116.105 350.86H106.736V344.563H109.497V348.307ZM129.614 366.612V364.111H134.635V355.691C134.635 352.758 133.927 350.86 130.805 350.86H128.631L125.301 366.612H122.126L125.577 350.86H122.609V348.307H130.667C136.188 348.307 137.671 351.24 137.671 357.209V366.612H129.614ZM151.025 366.612V356.571H154.131V366.612H151.025ZM150.887 348.307H164.949V366.612H161.843V350.86H150.887V348.307ZM168.779 364.111H170.815C172.557 364.111 173.092 363.507 173.092 361.143V350.86H170.608V348.307H176.232V361.35C176.232 364.594 174.542 366.612 171.557 366.612H168.779V364.111ZM181.408 348.289H184.652V357.779H181.408V348.289ZM201.284 364.111H203.682V366.612H188.879V364.111H198.109V350.86H188.879V348.307H201.284V364.111ZM244.607 348.307H247.695V355.898C247.695 360.988 246.039 363.783 240.276 365.853C238.171 366.612 232.53 368.579 232.53 368.579L231.753 366.181L236.843 364.387L233.616 348.307H236.912L239.707 363.438C242.571 362.334 244.607 361.281 244.607 356.864V348.307ZM262.912 366.612H259.652V350.86H250.939V348.307H264.776V350.86H262.912V366.612ZM269.055 348.289H272.298V357.779H269.055V348.289ZM283.582 366.612V364.111H288.602V355.691C288.602 352.758 287.895 350.86 284.772 350.86H282.598L279.268 366.612H276.094L279.544 350.86H276.577V348.307H284.634C290.155 348.307 291.639 351.24 291.639 357.209V366.612H283.582ZM304.958 348.307H314.43C319.417 348.307 320.607 351.568 320.607 356.226V366.612H317.502V355.622C317.502 352.931 316.932 350.86 314.223 350.86H309.996V366.612H303.613V364.111H306.943V350.86H304.958V348.307ZM325.49 348.307H333.875C338.861 348.307 339.81 351.395 339.81 356.053V366.612H336.635V355.691C336.635 353.017 336.238 350.86 333.702 350.86H328.613V366.612H325.49V348.307ZM351.749 348.307H358.961V357.14C358.961 364.249 355.459 366.612 350.334 366.612H345.245L343.45 348.307H346.659L348.16 364.111H350.196C353.733 364.111 355.89 363.006 355.89 356.053V350.86H351.749V348.307ZM375.438 364.111H377.836V366.612H363.033V364.111H372.263V350.86H363.033V348.307H375.438V364.111ZM396.193 366.612H392.777L385.807 356.122C384.392 356.502 383.702 357.675 383.702 359.435L383.754 366.612H380.648V360.505C380.648 357.606 381.356 355.053 384.616 354.311L380.614 348.307H383.823L389.844 357.537C391.656 357.261 392.794 356.364 392.794 354.345V348.307H395.848V353.569C395.848 357.14 394.106 359.021 391.173 359.366L396.193 366.612ZM427.146 348.307H436.618C441.604 348.307 442.794 351.568 442.794 356.226V366.612H439.689V355.622C439.689 352.931 439.119 350.86 436.411 350.86H432.184V366.612H425.8V364.111H429.13V350.86H427.146V348.307ZM447.901 348.307H451.145V366.612H447.901V348.307ZM456.597 348.289H459.84V357.779H456.597V348.289ZM472.245 348.307H479.457V357.14C479.457 364.249 475.955 366.612 470.831 366.612H465.741L463.947 348.307H467.156L468.657 364.111H470.693C474.23 364.111 476.386 363.006 476.386 356.053V350.86H472.245V348.307ZM483.477 348.307H489.171C494.192 348.307 495.313 351.706 495.313 356.364V366.612H492.104V356.157C492.104 353.431 491.569 350.86 488.998 350.86H483.477V348.307ZM500.04 348.307H506.424C511.41 348.307 513.808 350.67 513.808 355.657V359.297C513.808 364.249 511.238 366.612 506.424 366.612H500.075V364.111H506.562C508.978 364.111 510.634 363.075 510.634 359.469V355.38C510.634 351.775 509.047 350.86 506.562 350.86H503.129V358.175H500.04V348.307ZM527.732 348.307H537.204C542.19 348.307 543.38 351.568 543.38 356.226V366.612H540.275V355.622C540.275 352.931 539.705 350.86 536.997 350.86H532.77V366.612H526.386V364.111H529.716V350.86H527.732V348.307ZM547.004 364.111H549.039C550.782 364.111 551.317 363.507 551.317 361.143V350.86H548.832V348.307H554.457V361.35C554.457 364.594 552.766 366.612 549.781 366.612H547.004V364.111ZM563.739 362.489H563.67C563.153 364.973 561.617 366.612 558.615 366.612H557.563V363.852H558.908C562.152 363.852 563.153 361.919 563.153 359.366C563.153 358.917 563.118 358.452 563.066 357.986C562.773 355.329 562.186 350.86 562.186 350.86H558.667V348.307H564.774L567.104 366.612H564.309L563.739 362.489ZM570.589 366.612V356.571H573.694V366.612H570.589ZM570.451 348.307H584.512V366.612H581.406V350.86H570.451V348.307Z" fill="#20283F"/>
<path d="M218.899 344.338V371.115H217.485V344.338H218.899ZM411.928 344.338V371.115H410.514V344.338H411.928Z" fill="#3EA696"/>
<path d="M198.337 56.8632C223.044 43.2928 247.727 28.8223 272.399 15.0219L288.101 6.10879C291.197 4.32574 295.874 1.55079 299.048 0C303.738 2.2356 308.945 5.5472 313.543 8.07521C327.558 15.8935 341.527 23.7846 355.454 31.7483C363.837 36.4775 372.29 41.4296 380.693 46.068C385.136 48.4699 389.536 50.9456 393.892 53.4944C395.313 54.3131 398.53 56.0488 399.706 56.8935C399.081 57.6411 369.079 74.5218 365.74 76.2108C365.71 77.2887 365.752 78.3586 365.469 79.3916L365.439 127.561L365.442 143.536C365.442 145.945 365.287 148.384 365.439 150.685C363.702 149.536 353.269 143.093 351.364 141.968C349.812 139.392 349.027 140.587 351.364 141.968V84.5598C347.715 82.0162 341.327 78.6285 337.317 76.3205L310.174 60.7293C307.273 59.0773 302.347 56.329 299.418 54.4547C299.346 54.2665 299.418 53.2033 299.418 53.2033C299.128 50.289 299.022 39.214 299.022 39.214C296.902 40.2738 278.576 50.2823 276.215 51.6404L232.637 76.2748L210.201 63.6272C206.541 61.5517 201.794 59.1484 198.337 56.8632Z" fill="url(#paint0_linear_0_7)"/>
<path d="M365.451 76.2097L299.022 39.214C299.022 52.8041 299.022 53.693 298.528 53.693C301.485 55.571 306.68 58.8907 309.609 60.5461L337.02 76.1688C341.069 78.4814 347.52 81.8759 351.205 84.4246L351.598 141.669C351.598 141.669 363.666 149.533 365.421 150.685C365.266 148.379 365.421 145.933 365.421 143.52L365.418 127.512L365.448 79.246L365.451 76.2097Z" fill="#3D3D16"/>
<path d="M399.544 147.908C399.544 142.957 399.706 170.188 399.706 56.8935C399.086 57.6349 368.706 74.01 365.395 75.6849V78.8779L365.365 126.648L365.368 142.491C365.368 144.88 365.256 148.226 365.408 150.507C362.412 152.58 337.525 166.613 353.834 157.197L337.525 166.34L299.624 187.74C299.954 196.619 299.472 205.726 299.763 214.643C299.879 218.154 300.082 223.961 300.082 226.671C301.65 225.277 352.997 196.587 355.645 195.056L374.577 184.304C382.667 179.673 391.36 174.569 399.529 170.188C399.678 162.926 399.547 155.223 399.547 147.937L399.544 147.908Z" fill="url(#paint1_linear_0_7)"/>
<path d="M351.598 83.7138C338.88 75.2351 301.96 54.8356 299.022 52.9919C298.512 53.9012 220.655 103.078 219.663 103.692C215.058 106.444 210.479 109.235 205.925 112.064C204.036 113.213 199.884 115.967 198.554 117.199C199.504 117.909 206.56 121.805 207.569 122.351L220.448 130.078C223.978 132.057 228.369 134.801 232.039 136.518L277.985 107.622C284.948 103.28 292.504 98.7246 299.319 94.2416C304.007 97.226 311.74 101.077 316.978 104.138C326.135 99.03 335.415 94.1656 344.397 88.7524C346.521 87.4727 347.734 86.2896 351.598 83.7138Z" fill="url(#paint2_linear_0_7)"/>
<path d="M351.762 83.7895L351.757 142.248C346.04 145.296 300.197 171.668 298.835 171.569C298.797 171.566 298.767 171.54 298.732 171.523C296.078 170.27 290.043 166.868 287.624 165.346C286.581 164.624 282.242 162.589 280.702 161.751L261.11 150.995C259.152 149.897 254.712 147.581 253.132 146.452C255.571 144.773 258.006 143.237 260.554 141.715C273.401 134.04 285.999 125.76 298.898 118.196C298.888 122.968 298.903 127.74 298.944 132.512C304.838 129.092 310.86 125.876 316.698 122.473C316.572 116.177 316.852 109.715 316.751 103.374C325.968 98.2272 335.309 93.3265 344.349 87.8728C346.488 86.5835 349.49 84.7287 351.762 83.7895Z" fill="url(#paint3_linear_0_7)"/>
<path d="M262.851 150.904C260.906 149.791 256.144 147.375 254.574 146.231C254.574 146.821 254.567 145.813 254.574 148.109C254.574 201.069 254.618 189.193 254.549 201.054C255.757 201.747 298.894 226.732 300.082 226.671C300.082 222.807 300.668 226.136 300.668 215.109C300.668 206.065 300.862 196.852 300.527 187.859C296.883 185.759 292.57 183.657 289.116 181.361C289.136 178.615 288.809 167.255 289.202 165.45C288.166 164.718 283.853 162.655 282.323 161.805L262.851 150.904Z" fill="url(#paint4_linear_0_7)"/>
<path d="M198.502 170.801C198.156 159.602 198.467 146.853 198.443 135.524H198.402C198.395 133.661 198.554 118.647 198.554 117.199C197.56 116.648 203.489 119.723 198.554 117.199C200.895 118.498 218.92 128.407 221.249 129.73C224.728 131.73 228.776 134.263 232.393 135.998C232.774 140.115 232.468 150.27 232.461 154.76L232.516 190.189L198.502 170.801Z" fill="url(#paint5_linear_0_7)"/>
<path d="M251.33 146.18C253.873 144.421 256.411 142.812 259.068 141.218C272.461 133.179 285.596 124.505 299.044 116.582C299.034 121.581 299.049 126.579 299.092 131.578C299.102 136.106 299.619 170.333 298.87 172.442C296.104 171.13 289.812 167.566 287.29 165.972C286.203 165.216 281.679 163.084 280.073 162.206L259.647 150.939C257.606 149.789 252.977 147.363 251.33 146.18Z" fill="#3E2061"/>
<path d="M198.337 56.8632C223.044 43.2928 247.727 28.8223 272.399 15.0219L288.101 6.10879C291.197 4.32574 295.874 1.55079 299.048 0C303.738 2.2356 308.945 5.5472 313.543 8.07521C327.558 15.8935 341.527 23.7846 355.454 31.7483C363.837 36.4775 372.29 41.4296 380.693 46.068C385.136 48.4699 389.536 50.9456 393.892 53.4944C395.313 54.3131 398.53 56.0488 399.706 56.8935C399.081 57.6411 369.079 74.5218 365.74 76.2108C365.71 77.2887 365.752 78.3586 365.469 79.3916L365.439 127.561L365.442 143.536C365.442 145.945 365.287 148.384 365.439 150.685C363.702 149.536 353.269 143.093 351.364 141.968C349.812 139.392 349.027 140.587 351.364 141.968V84.5598C347.715 82.0162 341.327 78.6285 337.317 76.3205L310.174 60.7293C307.273 59.0773 302.347 56.329 299.418 54.4547C299.346 54.2665 299.418 53.2033 299.418 53.2033C299.128 50.289 299.022 39.214 299.022 39.214C296.902 40.2738 278.576 50.2823 276.215 51.6404L232.637 76.2748L210.201 63.6272C206.541 61.5517 201.794 59.1484 198.337 56.8632Z" fill="url(#paint6_linear_0_7)"/>
<path d="M365.451 76.2097L299.023 39.214C299.023 52.8041 299.023 53.693 298.528 53.693C301.486 55.571 306.68 58.8907 309.61 60.5461L337.02 76.1688C341.069 78.4814 347.52 81.8759 351.205 84.4246L351.598 141.669C351.598 141.669 363.667 149.533 365.421 150.685C365.267 148.379 365.421 145.933 365.421 143.52L365.418 127.512L365.449 79.246L365.451 76.2097Z" fill="#348E7F"/>
<path d="M399.544 147.908C399.544 142.957 399.706 170.188 399.706 56.8935C399.086 57.6349 368.706 74.01 365.395 75.6849V78.8779L365.365 126.648L365.368 142.491C365.368 144.88 365.256 148.226 365.408 150.507C362.412 152.58 337.525 166.613 353.834 157.197L337.525 166.34L299.624 187.74C299.954 196.619 299.472 205.726 299.763 214.643C299.879 218.154 300.082 223.961 300.082 226.671C301.65 225.277 352.997 196.587 355.645 195.056L374.577 184.304C382.667 179.673 391.36 174.569 399.529 170.188C399.678 162.926 399.547 155.223 399.547 147.937L399.544 147.908Z" fill="url(#paint7_linear_0_7)"/>
<path d="M351.598 83.7138C338.88 75.2351 301.96 54.8356 299.022 52.9919C298.512 53.9012 220.655 103.078 219.663 103.692C215.058 106.444 210.479 109.235 205.925 112.064C204.036 113.213 199.884 115.967 198.554 117.199C199.504 117.909 206.56 121.805 207.569 122.351L220.448 130.078C223.978 132.057 228.369 134.801 232.039 136.518L277.985 107.622C284.948 103.28 292.504 98.7246 299.319 94.2416C304.007 97.226 311.74 101.077 316.978 104.138C326.135 99.03 335.415 94.1656 344.397 88.7524C346.521 87.4727 347.734 86.2896 351.598 83.7138Z" fill="url(#paint8_linear_0_7)"/>
<path d="M351.762 83.7895L351.757 142.248C346.04 145.296 300.197 171.668 298.835 171.569C298.797 171.566 298.767 171.54 298.732 171.523C296.078 170.27 290.043 166.868 287.624 165.346C286.581 164.624 282.242 162.589 280.702 161.751L261.11 150.995C259.152 149.897 254.712 147.581 253.132 146.452C255.571 144.773 258.006 143.237 260.554 141.715C273.401 134.04 285.999 125.76 298.898 118.196C298.888 122.968 298.903 127.74 298.944 132.512C304.838 129.092 310.86 125.876 316.698 122.473C316.572 116.177 316.852 109.715 316.751 103.374C325.968 98.2272 335.309 93.3265 344.349 87.8728C346.488 86.5835 349.49 84.7287 351.762 83.7895Z" fill="url(#paint9_linear_0_7)"/>
<path d="M198.502 170.801C198.156 159.602 198.467 146.853 198.443 135.524H198.402C198.395 133.661 198.554 118.647 198.554 117.199C197.56 116.648 203.489 119.723 198.554 117.199C200.895 118.498 218.92 128.407 221.249 129.73C224.728 131.73 228.776 134.263 232.393 135.998C232.774 140.115 232.468 150.27 232.461 154.76L232.516 190.189L198.502 170.801Z" fill="url(#paint10_linear_0_7)"/>
<path d="M251.33 146.18C253.873 144.421 256.411 142.812 259.068 141.218C272.461 133.179 285.596 124.505 299.044 116.582C299.034 121.581 299.049 126.579 299.092 131.578C299.102 136.106 299.619 170.333 298.87 172.442C296.104 171.13 289.812 167.566 287.29 165.972C286.203 165.216 281.679 163.084 280.073 162.206L259.647 150.939C257.606 149.789 252.977 147.363 251.33 146.18Z" fill="#20283F"/>
<defs>
<linearGradient id="paint0_linear_0_7" x1="186.679" y1="76.3083" x2="418.569" y2="48.9404" gradientUnits="userSpaceOnUse">
<stop offset="0.173476" stop-color="#C0C03D"/>
<stop offset="1" stop-color="#3D3D16"/>
</linearGradient>
<linearGradient id="paint1_linear_0_7" x1="386.371" y1="56.6678" x2="298.794" y2="226.671" gradientUnits="userSpaceOnUse">
<stop stop-color="#6DB6E3"/>
<stop offset="1" stop-color="#34789A"/>
</linearGradient>
<linearGradient id="paint2_linear_0_7" x1="229.463" y1="119.775" x2="331.208" y2="79.8501" gradientUnits="userSpaceOnUse">
<stop stop-color="#3C3C15"/>
<stop offset="0.742755" stop-color="#B7B73A"/>
<stop offset="1" stop-color="#384911"/>
</linearGradient>
<linearGradient id="paint3_linear_0_7" x1="252.429" y1="172.579" x2="360.613" y2="92.7291" gradientUnits="userSpaceOnUse">
<stop stop-color="#8A6CA5"/>
<stop offset="1" stop-color="#3C1D62"/>
</linearGradient>
<linearGradient id="paint4_linear_0_7" x1="278.187" y1="212.504" x2="278.187" y2="124.927" gradientUnits="userSpaceOnUse">
<stop offset="0.197738" stop-color="#20283F"/>
<stop offset="1" stop-color="#9BA3B7"/>
</linearGradient>
<linearGradient id="paint5_linear_0_7" x1="216.368" y1="118.487" x2="216.368" y2="171.291" gradientUnits="userSpaceOnUse">
<stop offset="0.103619" stop-color="#8B6CA6"/>
<stop offset="1" stop-color="#3E2061"/>
</linearGradient>
<linearGradient id="paint6_linear_0_7" x1="186.679" y1="76.3083" x2="432.736" y2="39.925" gradientUnits="userSpaceOnUse">
<stop offset="0.0446284" stop-color="#2D7B6E"/>
<stop offset="1" stop-color="#53DAC5"/>
</linearGradient>
<linearGradient id="paint7_linear_0_7" x1="410.841" y1="32.1976" x2="298.794" y2="226.671" gradientUnits="userSpaceOnUse">
<stop stop-color="#9BA3B7"/>
<stop offset="1" stop-color="#20283F"/>
</linearGradient>
<linearGradient id="paint8_linear_0_7" x1="229.463" y1="119.775" x2="370.916" y2="70.8347" gradientUnits="userSpaceOnUse">
<stop stop-color="#2A7E71"/>
<stop offset="1" stop-color="#53DAC5"/>
</linearGradient>
<linearGradient id="paint9_linear_0_7" x1="252.429" y1="172.579" x2="399.25" y2="74.6984" gradientUnits="userSpaceOnUse">
<stop stop-color="#141926"/>
<stop offset="1" stop-color="#9BA3B7"/>
</linearGradient>
<linearGradient id="paint10_linear_0_7" x1="216.368" y1="85.0017" x2="216.368" y2="171.291" gradientUnits="userSpaceOnUse">
<stop offset="0.139423" stop-color="#9BA3B7"/>
<stop offset="1" stop-color="#20283F"/>
</linearGradient>
</defs>
</svg>
